<?xml version="1.0" ?><svg style="enable-background:new 0 0 48 48;" version="1.1" viewBox="0 0 48 48" xml:space="preserve" xmlns="http://www.w3.org/2000/svg" xmlns:xlink="http://www.w3.org/1999/xlink"><g id="Icons"><g><g><g id="Icons_4_"><g><path d="M31.96582,34.42915c0.0591,0,0.0998-0.0431,0.0896-0.1013       c-0.073-0.4144-0.3225-1.8181-0.9299-2.5297c-0.0328-0.0383-0.0684-0.0738-0.1047-0.1089       c-0.8236-0.7953-2.0106-1.3114-3.0109-1.8391c-0.55-0.2901-1.1039-0.5724-1.6561-0.8581       c-0.7601-0.3932-1.3772-0.7035-1.7074-1.5404c-0.2986-0.7567-0.3046-0.845-0.3528-1.6454l0.3681-0.4529       c0.2748-0.4056,0.4841-1.9493,0.4841-1.9493c0.3278-0.0091,0.5863-0.3526,0.6724-0.6236       c0.139-0.4375,0.273-0.8438,0.3264-1.3007c0.0394-0.3369,0.1073-0.7508-0.1608-1.0175       c-0.0455-0.0453-0.4293-0.1431-0.4847-0.028c0.0392-0.0815,0.0915-2.1454,0.0915-2.1454l0.5002-0.3716l-0.1491-1.1302       c0,0-0.5092-2.4715-3.0676-3.0677c-2.5584-0.5961-4.0985,0.7949-4.0985,0.7949c-0.8072,0-1.3413,0.5465-1.5897,1.54       c-0.2483,0.9936,0.021,2.2346,0.021,2.2346s0.0522,2.0639,0.0915,2.1454c-0.0554-0.1151-0.4393-0.0173-0.4848,0.028       c-0.268,0.2667-0.2002,0.6806-0.1607,1.0175c0.0534,0.4569,0.1873,0.8632,0.3264,1.3007       c0.0861,0.271,0.3446,0.6145,0.6724,0.6236c0,0,0.2093,1.5437,0.484,1.9493l0.3682,0.4529       c-0.0482,0.8004-0.0542,0.8887-0.3528,1.6454c-0.3302,0.8369-0.9474,1.1472-1.7075,1.5404       c-0.5522,0.2857-1.1061,0.568-1.656,0.8581c-1.0003,0.5277-2.1873,1.0439-3.0109,1.8391       c-0.0363,0.0351-0.072,0.0706-0.1047,0.1089c-0.5688,0.6664-0.8238,1.9397-0.9138,2.4391       c-0.0182,0.1009,0.06,0.1918,0.1625,0.1918L31.96582,34.42915z" style="fill:#5F83CF;"/></g></g></g><g><circle cx="32.70022" cy="18.91288" r="4.54418" style="fill:#F43734;"/><path d="M35.35302,18.56295h-2.3027v-2.3032c0-0.1934-0.1563-0.3501-0.3496-0.3501     c-0.1934,0-0.3497,0.1567-0.3497,0.3501v2.3032h-2.3037c-0.1933,0-0.3496,0.1568-0.3496,0.3501     c0,0.1934,0.1563,0.3501,0.3496,0.3501h2.3037v2.3028c0,0.1933,0.1563,0.35,0.3497,0.35c0.1933,0,0.3496-0.1567,0.3496-0.35     v-2.3028h2.3027c0.1934,0,0.3496-0.1567,0.3496-0.3501C35.70262,18.71975,35.54642,18.56295,35.35302,18.56295z" style="fill:#FFFFFF;"/></g></g></g></svg>